<svg xmlns="http://www.w3.org/2000/svg" width="24" height="24" viewBox="0 0 24 24" fill="none" stroke="#2563eb" stroke-width="2" stroke-linecap="round" stroke-linejoin="round">
  <circle cx="12" cy="17" r="5" />
  <path d="M12 2a2.3 2.3 0 0 1 2.3 2.3 2.3 2.3 0 0 1-2.3 2.3 2.3 2.3 0 0 1-2.3-2.3A2.3 2.3 0 0 1 12 2Z" />
  <path d="M5.6 7.4a2.3 2.3 0 0 1 3.2 0 2.3 2.3 0 0 1 0 3.2 2.3 2.3 0 0 1-3.2 0 2.3 2.3 0 0 1 0-3.2Z" />
  <path d="M18.4 7.4a2.3 2.3 0 0 1 0 3.2 2.3 2.3 0 0 1-3.2 0 2.3 2.3 0 0 1 0-3.2 2.3 2.3 0 0 1 3.2 0Z" />
</svg>
